<svg xmlns="http://www.w3.org/2000/svg" width="460" height="262" viewBox="0 0 460 262" font-family="ui-monospace, SFMono-Regular, Menlo, Consolas, monospace"><rect width="460" height="262" rx="10" fill="#ffffff"/><text x="16" y="26" font-size="13" fill="#57606a">languages across 13 public repos</text><text x="16" y="57" font-size="12" fill="#1f2328">C++</text><rect x="96" y="44" width="290" height="15" rx="3" fill="#f34b7d"/><text x="394" y="56" font-size="11" fill="#57606a">44%</text><text x="16" y="81" font-size="12" fill="#1f2328">TypeScript</text><rect x="96" y="68" width="191" height="15" rx="3" fill="#3178c6"/><text x="295" y="80" font-size="11" fill="#57606a">29%</text><text x="16" y="105" font-size="12" fill="#1f2328">C#</text><rect x="96" y="92" width="94" height="15" rx="3" fill="#0969da"/><text x="198" y="104" font-size="11" fill="#57606a">14%</text><text x="16" y="129" font-size="12" fill="#1f2328">Typst</text><rect x="96" y="116" width="51" height="15" rx="3" fill="#0969da"/><text x="155" y="128" font-size="11" fill="#57606a">8%</text><text x="16" y="153" font-size="12" fill="#1f2328">Python</text><rect x="96" y="140" width="15" height="15" rx="3" fill="#3572A5"/><text x="119" y="152" font-size="11" fill="#57606a">2%</text><text x="16" y="177" font-size="12" fill="#1f2328">Assembly</text><rect x="96" y="164" width="8" height="15" rx="3" fill="#0969da"/><text x="112" y="176" font-size="11" fill="#57606a">1%</text><text x="16" y="201" font-size="12" fill="#1f2328">Tact</text><rect x="96" y="188" width="7" height="15" rx="3" fill="#0969da"/><text x="111" y="200" font-size="11" fill="#57606a">1%</text><text x="16" y="225" font-size="12" fill="#1f2328">Shell</text><rect x="96" y="212" width="5" height="15" rx="3" fill="#89e051"/><text x="109" y="224" font-size="11" fill="#57606a">1%</text><text x="448" y="252" font-size="10" fill="#d0d7de" text-anchor="end">live from github api</text></svg>